<?xml version="1.0" encoding="UTF-8" standalone="no"?>
<!-- Created with Inkscape (http://www.inkscape.org/) -->

<svg
   xmlns:dc="http://purl.org/dc/elements/1.1/"
   xmlns:cc="http://creativecommons.org/ns#"
   xmlns:rdf="http://www.w3.org/1999/02/22-rdf-syntax-ns#"
   xmlns:svg="http://www.w3.org/2000/svg"
   xmlns="http://www.w3.org/2000/svg"
   xmlns:sodipodi="http://sodipodi.sourceforge.net/DTD/sodipodi-0.dtd"
   xmlns:inkscape="http://www.inkscape.org/namespaces/inkscape"
   width="1200"
   height="400"
   id="svg3034"
   version="1.1"
   inkscape:version="0.48.2 r9819"
   sodipodi:docname="Documento nuevo 2">
  <defs
     id="defs3036" />
  <sodipodi:namedview
     id="base"
     pagecolor="#ffffff"
     bordercolor="#666666"
     borderopacity="1.0"
     inkscape:pageopacity="0.0"
     inkscape:pageshadow="2"
     inkscape:zoom="0.35"
     inkscape:cx="350"
     inkscape:cy="520"
     inkscape:document-units="px"
     inkscape:current-layer="layer1"
     showgrid="false"
     inkscape:window-width="1366"
     inkscape:window-height="706"
     inkscape:window-x="-8"
     inkscape:window-y="-8"
     inkscape:window-maximized="1" />
  <metadata
     id="metadata3039">
    <rdf:RDF>
      <cc:Work
         rdf:about="">
        <dc:format>image/svg+xml</dc:format>
        <dc:type
           rdf:resource="http://purl.org/dc/dcmitype/StillImage" />
        <dc:title></dc:title>
      </cc:Work>
    </rdf:RDF>
  </metadata>
  <g
     inkscape:label="Capa 1"
     inkscape:groupmode="layer"
     id="layer1"
     transform="translate(0,-652.36218)">
    <g
       id="g4003"
       transform="matrix(2.0803897,0.01058057,-0.01057642,2.0795727,44.604599,278.62497)">
      <path
         style="fill:#2e75a3"
         id="path3202"
         inkscape:connector-curvature="0"
         d="m 145.07,280.927 c 0,0 0.799,-0.399 1.039,-1.758 0,-0.08 0,-0.16 0,-0.24 l 0,-0.24 c -0.08,-1.278 -1.359,-2.797 -2.797,-4.315 -1.678,-1.678 -3.116,-2.478 -3.116,-2.478 0,0 -0.719,-3.356 -3.756,-7.99 -2.956,-4.635 -8.071,-9.509 -10.867,-8.071 -2.797,1.438 -0.32,5.434 -0.16,6.633 0.24,1.278 1.438,3.356 1.039,3.356 -0.479,-0.08 -6.553,-11.507 -21.735,-8.31 -3.916,0.878 -7.272,2.557 -9.989,4.714 l 0,26.69 c 0.959,-0.959 1.358,-1.439 1.358,-1.439 0,0 1.039,4.795 2.957,6.953 1.918,2.157 4.235,3.436 4.954,1.837 0.719,-1.518 -1.518,-8.07 -1.518,-8.07 0,0 4.155,3.995 5.354,4.954 1.199,0.958 3.516,2.157 4.155,0 0.559,-2.157 -1.119,-5.433 -2.477,-5.992 -1.278,-0.56 -2.078,-0.56 -2.078,-0.56 0,0 -0.799,-1.039 -1.199,-1.359 -0.479,-0.32 -0.559,-0.319 -0.559,-0.319 0,0 0.719,-0.4 2.957,-0.32 2.317,0.08 4.155,0.16 4.155,0.16 0,0 2.078,3.036 3.356,3.995 1.199,1.039 4.315,3.516 5.434,4.554 1.039,1.039 1.678,1.519 2.078,0.639 0.32,-0.879 -0.24,-3.196 -1.678,-4.874 -1.518,-1.598 -3.116,-2.477 -3.676,-3.276 -0.479,-0.959 -0.799,-1.678 -0.799,-1.678 0,0 2.957,2.157 3.676,2.877 0.799,0.639 6.073,3.915 6.952,4.474 0.879,0.64 1.279,0.24 1.279,0.24 0,0 0.639,0.479 0.879,0.16 0.24,-0.32 0.879,-2.477 -0.799,-3.755 -1.758,-1.359 -2.797,-1.998 -2.637,-2.158 0.08,-0.159 1.838,0.4 2.077,-0.08 0.16,-0.399 -0.08,-1.038 -0.32,-1.198 -0.16,-0.241 0.48,-0.72 0.48,-0.72 0,0 0.639,0 3.276,0.24 2.637,0.24 9.269,-1.997 10.628,-2.477 1.358,-0.48 2.077,-0.799 2.077,-0.799 l 0,0 0,0 z m -50.342,34.36 c 5.514,-3.595 5.753,-12.705 2.717,-14.463 -0.879,-0.559 -1.758,-0.958 -2.717,-1.199 l 0,4.156 c 0.24,0.159 0.48,0.4 0.639,0.799 0.479,0.959 0.24,2.157 0.24,2.157 0,0 -0.08,-1.518 -0.639,-2.317 -0.08,-0.08 -0.16,-0.16 -0.24,-0.24 l 0,11.107 0,0 z m 0,-53.059 c -1.198,0.88 -2.237,1.918 -3.196,2.957 l 0,26.449 c 0.799,-0.479 1.518,-0.959 2.158,-1.598 0.4,-0.399 0.719,-0.799 1.039,-1.118 l -0.001,-26.69 0,0 z m -3.196,54.417 c 1.199,-0.239 2.317,-0.719 3.196,-1.358 l 0,-11.107 c -0.479,-0.639 -0.879,-1.039 -0.879,-1.039 0,0 0.4,0.16 0.879,0.64 l 0,-4.156 c -1.039,-0.319 -2.158,-0.479 -3.196,-0.239 l 0,6.952 0,0 c 0.24,-0.16 0.639,-0.24 0.479,0.32 -0.08,0.32 -0.32,0.319 -0.48,0.32 l 0,0 0,4.075 c 0.16,0 0.399,0 0.559,-0.08 0,0 -0.16,0.16 -0.56,0.319 l 0.002,5.353 0,0 z m 0,-51.46 c -5.594,5.913 -8.071,13.025 -8.63,14.623 -0.879,2.477 -6.552,11.426 -7.032,16.7 -0.4,5.354 -0.479,18.379 11.667,20.137 1.438,0.24 2.797,0.239 3.995,-10e-4 l 0,-5.353 c -1.119,0.319 -3.596,0.639 -6.393,-2.557 -3.756,-4.315 -1.918,-11.347 1.039,-13.745 1.918,-1.598 3.756,-2.477 5.354,-3.356 l 0,-26.448 0,0 0,0 z m 0,34.2 0,6.952 c -0.24,0.16 -0.4,0.16 -0.559,-0.08 -0.16,0.48 0.16,0.719 0.559,0.719 l 0,4.075 c -2.557,0.239 -6.073,-1.998 -5.194,-5.514 1.039,-3.994 2.957,-5.752 5.194,-6.152 z" />
      <g
         id="g3217"
         transform="matrix(0.3825107,0,0,0.3825107,20.089286,125.61275)"
         inkscape:transform-center-y="-44.562164">
        <path
           style="fill:#eddf0e"
           id="rect3215"
           sodipodi:nodetypes="sssssssss"
           inkscape:connector-curvature="0"
           d="m 227.414,246.939 13.283,-0.497 c 7.13,-0.267 16.92,4.74 16.36,13.874 l -3.482,56.799 c -0.436,7.122 -3.506,10.89 -9.149,10.891 l -17.511,0 c -7.135,-10e-4 -10.136,-4.519 -10.641,-11.636 l -3.979,-56.054 c -0.503,-7.119 5,-12.998 15.119,-13.377 l 0,0 z" />
      </g>
      <g
         id="g3221"
         transform="matrix(0.31077472,-0.25449536,0.25449536,0.31077472,-108.32473,252.83556)"
         inkscape:transform-center-x="29.82031"
         inkscape:transform-center-y="-36.33424">
        <path
           style="fill:#fd6600"
           id="path3223"
           sodipodi:nodetypes="sssssssss"
           inkscape:connector-curvature="0"
           d="m 364.994,242.27 13.283,-0.498 c 7.129,-0.267 16.919,4.74 16.36,13.874 l -3.481,56.799 c -0.437,7.122 -3.506,10.89 -9.149,10.89 l -17.511,0.001 c -7.135,-0.001 -10.136,-4.519 -10.64,-11.636 l -3.979,-56.054 c -0.506,-7.117 4.998,-12.998 15.117,-13.376 l 0,0 z" />
      </g>
      <g
         id="g3225"
         transform="matrix(0.07828233,-0.37104593,0.37104593,0.07828233,-104.36,429.7208)"
         inkscape:transform-center-x="43.056986"
         inkscape:transform-center-y="-9.8080536">
        <path
           style="fill:#a4dc2d"
           id="path3227"
           sodipodi:nodetypes="sssssssss"
           inkscape:connector-curvature="0"
           d="m 485.005,307.459 13.284,-0.497 c 7.129,-0.267 16.92,4.739 16.36,13.874 l -3.481,56.8 c -0.436,7.121 -3.506,10.889 -9.149,10.89 l -17.512,0 c -7.135,0 -10.134,-4.519 -10.64,-11.636 l -3.978,-56.054 c -0.505,-7.117 4.999,-12.998 15.116,-13.377 l 0,0 z" />
      </g>
      <g
         id="g3229"
         transform="matrix(-0.13902763,-0.26521617,0.26521617,-0.13902763,13.934291,526.86862)"
         inkscape:transform-center-x="30.900947"
         inkscape:transform-center-y="16.468461">
        <path
           style="fill:#ef3e3e"
           id="path3231"
           sodipodi:nodetypes="sssssssss"
           inkscape:connector-curvature="0"
           d="m 584.441,445.677 13.283,-0.497 c 7.131,-0.266 16.921,4.741 16.36,13.874 l -3.48,56.8 c -0.438,7.121 -3.505,10.89 -9.149,10.89 l -17.511,0 c -7.134,0 -10.135,-4.518 -10.639,-11.635 l -3.98,-56.054 c -0.504,-7.118 4.999,-12.998 15.116,-13.378 l 0,0 z" />
      </g>
    </g>
    <path
       style="fill:#2e75a3"
       id="path2819"
       inkscape:connector-curvature="0"
       d="m 1055.4417,888.63524 v -22.046 c 7.283,0 13.418,-2.492 18.402,-7.667 4.793,-5.176 7.285,-11.887 7.285,-19.938 0,-8.053 -2.299,-14.762 -7.285,-19.748 -4.791,-4.984 -10.926,-7.476 -18.402,-7.476 v -22.43 c 8.627,0.191 17.061,2.301 24.73,6.709 7.859,4.41 13.994,10.545 18.404,18.212 4.408,7.479 6.518,15.721 6.518,24.539 0,9.012 -2.109,17.254 -6.518,25.115 -4.602,7.859 -10.545,13.803 -18.213,18.212 -7.476,4.408 -15.911,6.518 -24.921,6.518 l 0,0 z m 0,-99.306 v 22.43 h -0.193 c -7.285,0 -13.42,2.492 -18.404,7.478 -4.791,5.176 -7.283,11.693 -7.283,19.746 0,8.242 2.492,14.953 7.283,19.938 4.793,5.175 10.928,7.667 18.404,7.667 0,0 0,0 0.193,0 v 22.046 c -0.193,0 -0.193,0 -0.385,0 -13.611,0 -25.113,-4.793 -34.699,-14.378 -9.586,-9.777 -14.379,-21.47 -14.379,-35.273 0,-14.762 5.369,-26.84 16.297,-36.81 9.393,-8.435 20.32,-12.844 32.59,-12.844 0.191,0 0.383,0 0.576,0 l 0,0 0,0 z m -370.19195,99.114 v -21.472 c 7.476,0 13.61,-2.684 18.403,-7.859 4.984,-5.176 7.477,-11.887 7.477,-20.322 0,-8.242 -2.492,-14.953 -7.477,-19.938 -4.793,-4.984 -10.927,-7.477 -18.403,-7.477 v -21.663 c 3.833,0.384 7.476,1.342 10.927,2.876 4.984,2.108 9.586,5.368 13.803,9.585 v -10.352 h 23.771 v 94.512 h -23.771 v -10.16 c -4.602,4.602 -9.201,7.667 -13.994,9.585 -3.26,1.535 -6.903,2.302 -10.736,2.685 l 0,0 0,0 z m 72.274,-96.621 h 23.771 v 10.928 c 4.025,-4.602 8.627,-7.86 13.611,-9.969 4.984,-2.301 10.354,-3.451 16.104,-3.451 5.943,0 11.311,1.533 16.104,4.409 4.793,2.876 8.627,7.093 11.504,12.653 3.643,-5.561 8.434,-9.777 13.803,-12.653 5.559,-2.876 11.502,-4.409 18.02,-4.409 6.711,0 12.654,1.533 17.639,4.793 5.176,3.066 8.818,7.093 11.119,12.27 2.107,4.983 3.258,13.037 3.258,24.347 v 55.595 h -23.771 v -48.118 c 0,-10.736 -1.342,-18.021 -4.025,-21.664 -2.683,-3.643 -6.711,-5.559 -12.078,-5.559 -4.025,0 -7.668,1.15 -10.928,3.452 -3.258,2.107 -5.559,5.367 -7.094,9.393 -1.725,4.219 -2.492,10.736 -2.492,19.746 v 42.751 h -23.771 v -45.817 c 0,-8.627 -0.768,-14.762 -1.916,-18.404 -1.344,-3.834 -3.26,-6.518 -5.752,-8.436 -2.492,-1.725 -5.367,-2.684 -9.01,-2.684 -3.836,0 -7.479,1.15 -10.736,3.452 -3.068,2.107 -5.561,5.559 -7.094,9.777 -1.725,4.217 -2.492,10.926 -2.492,19.938 v 42.175 h -23.771 v -94.515 l -0.003,0 0,0 z m 176.947,-38.91799 c 4.219,0 7.67,1.53399 10.736,4.40999 2.875,3.067 4.40998,6.709 4.40998,10.928 0,4.408 -1.34198,7.859 -4.40998,10.927 -2.875,3.067 -6.518,4.409 -10.543,4.409 -4.219,0 -7.861,-1.533 -10.928,-4.601 -2.877,-2.876 -4.41,-6.71 -4.41,-10.928 0,-4.218 1.533,-7.86 4.41,-10.735 2.876,-3.06799 6.518,-4.40999 10.735,-4.40999 l 0,0 z m -11.885,38.91799 h 23.771 v 94.512 h -23.771 v -94.512 l 0,0 z m 42.74998,-36.618 h 23.773 v 131.129 h -23.773 v -131.129 l 0,0 z m -450.70898,25.881 -17.062,16.296 c -11.694,-12.27 -24.73,-18.404 -39.108,-18.404 -12.27,0 -22.622,4.218 -30.865,12.461 -8.436,8.436 -12.653,18.596 -12.653,30.674 0,8.627 1.917,16.104 5.56,22.812 3.643,6.52 9.011,11.695 15.721,15.529 6.901,3.833 14.378,5.558 22.621,5.558 7.094,0 13.611,-1.148 19.363,-3.833 5.942,-2.684 12.461,-7.477 19.362,-14.377 l 16.487,17.062 c -9.394,9.393 -18.404,15.721 -26.84,19.363 -8.243,3.449 -17.829,5.176 -28.756,5.176 -19.746,0 -36.042,-6.135 -48.887,-18.789 -12.653,-12.652 -18.979,-28.755 -18.979,-48.501 0,-12.653 2.875,-23.964 8.819,-33.933 5.751,-9.777 13.994,-17.829 24.73,-23.771 10.735,-6.135 22.238,-9.203 34.699,-9.203 10.544,0 20.705,2.301 30.482,6.71 9.778,4.601 18.212,10.927 25.306,19.17 l 0,0 z m 170.623,8.627 v 21.663 h -0.191 c -7.477,0 -13.42,2.493 -18.404,7.477 -4.793,5.176 -7.285,11.887 -7.285,19.938 0,8.244 2.492,14.953 7.477,20.322 4.984,5.175 11.119,7.859 18.213,7.859 0.191,0 0.191,0 0.191,0 v 21.472 c -1.342,0.191 -2.875,0.191 -4.408,0.191 -12.27,0 -22.814,-4.602 -31.825,-14.187 -8.818,-9.393 -13.229,-21.279 -13.229,-35.273 0,-14.57 4.217,-26.457 12.844,-35.851 8.627,-9.201 19.172,-13.994 31.442,-13.994 1.915,0 3.45,0.192 5.175,0.383 l 0,0 0,0 z m -151.836,-34.508 h 23.581 v 46.203 c 4.602,-4.026 9.395,-7.094 13.994,-9.011 4.793,-2.108 9.395,-3.067 14.188,-3.067 9.201,0 17.254,3.259 23.58,9.777 5.561,5.559 8.244,13.996 8.244,24.73 v 62.497 h -23.389 v -41.601 c 0,-10.928 -0.385,-18.404 -1.535,-22.238 -0.957,-3.834 -2.875,-6.518 -5.176,-8.436 -2.492,-1.917 -5.559,-2.875 -9.201,-2.875 -4.984,0 -9.012,1.534 -12.461,4.793 -3.451,2.875 -5.943,7.285 -7.285,12.844 -0.576,2.877 -0.959,9.203 -0.959,19.363 v 38.149 h -23.581 v -131.128 z" />
    <path
       style="fill:#2e75a3"
       id="path2913"
       inkscape:connector-curvature="0"
       d="m 1092.2487,935.98824 v -3.068 l 0,0 c 1.918,0 3.451,-0.383 4.984,-1.342 1.535,-0.959 2.686,-2.301 3.451,-4.025 h 3.451 c -0.959,2.684 -2.684,4.793 -4.602,6.326 -2.107,1.342 -4.408,2.109 -7.092,2.109 h -0.192 l 0,0 0,0 z m 0,-11.887 v -2.684 h 9.203 c -0.576,-2.684 -1.533,-4.793 -3.26,-6.135 -1.533,-1.342 -3.451,-2.109 -5.943,-2.109 v -3.066 c 0.193,0 0.193,0 0.193,0 3.834,0 6.709,1.342 9.01,3.834 2.301,2.492 3.643,5.941 3.643,9.969 v 0.191 h -12.846 l 0,0 z m 0,-13.994 v 3.066 h -0.191 c -2.301,0 -4.408,0.768 -5.943,2.109 -1.725,1.533 -2.684,3.643 -3.066,6.135 h 9.201 v 2.684 h -9.393 c 0.191,2.684 1.15,4.793 2.875,6.326 1.727,1.725 4.025,2.492 6.518,2.492 v 3.068 c -3.449,0 -6.518,-1.344 -8.818,-3.836 -2.492,-2.492 -3.834,-5.559 -3.834,-9.01 0,-3.834 1.342,-6.9 3.643,-9.393 2.49,-2.299 5.365,-3.449 9.008,-3.641 l 0,0 0,0 z m -40.067,25.881 v -2.877 c 0.191,0 0.191,0 0.191,0 2.492,0 4.602,-1.15 6.518,-3.066 1.727,-1.918 2.686,-4.41 2.686,-7.094 0,-2.684 -0.959,-4.984 -2.686,-6.902 -1.916,-1.916 -4.025,-2.875 -6.518,-2.875 0,0 0,0 -0.191,0 v -2.875 c 0.191,0 0.191,0 0.383,0 1.918,0 3.451,0.383 5.176,1.15 1.535,0.766 2.877,1.916 3.834,3.258 v -3.834 h 3.068 v 24.348 h -3.068 v -3.834 c -0.957,1.533 -2.299,2.492 -4.025,3.451 -1.533,0.766 -3.451,1.148 -5.367,1.148 l 0,0 v 0.002 z m 20.514,-0.768 h -3.068 v -24.348 h 2.875 v 2.875 c 0.768,-1.148 1.727,-1.916 2.492,-2.492 0.959,-0.574 2.109,-0.766 3.26,-0.766 v 3.451 c -1.916,0.191 -3.451,0.766 -4.217,1.725 -0.768,0.959 -1.342,2.684 -1.342,4.793 v 14.762 l 0,0 z m -20.514,-24.921 v 2.875 c -2.492,0 -4.602,0.959 -6.518,2.875 -1.727,1.918 -2.686,4.41 -2.686,7.285 0,2.684 0.959,4.984 2.686,6.902 1.916,1.916 4.025,2.684 6.518,2.875 v 2.877 l 0,0 c -3.451,0 -6.518,-1.344 -8.818,-3.643 -2.492,-2.492 -3.643,-5.561 -3.643,-9.203 0,-3.642 1.15,-6.709 3.643,-9.201 2.301,-2.301 5.367,-3.642 8.818,-3.642 l 0,0 z m -45.435,3.642 v -2.877 l 8.244,24.156 h 1.916 l 5.752,-18.596 5.752,18.596 h 2.107 l 8.244,-24.348 h -3.451 l -5.943,18.213 -5.559,-18.213 h -2.301 l -5.559,18.213 -5.943,-18.213 h -3.26 l 0,0 v 3.069 l 0,0 0,0 z m 0,-2.877 v 2.877 h -4.602 v 21.279 h -3.06597 v -21.279 h -4.602 v -3.068 h 4.602 v -7.859 h 3.06597 v 7.859 h 4.602 l 0,0 v 0.191 l 0,0 z m -38.72497,24.924 v -3.068 c 0,0 0,0 0.191,0 2.492,0 4.793,-0.959 6.518,-2.875 1.725,-1.727 2.684,-4.219 2.684,-7.094 0,-2.875 -0.959,-5.176 -2.684,-7.094 -1.725,-1.725 -4.025,-2.684 -6.709,-2.684 v -3.066 c 3.449,0 6.518,1.342 9.01,3.641 2.492,2.492 3.643,5.561 3.643,9.012 0,3.643 -1.15,6.709 -3.643,9.393 -2.492,2.492 -5.367,3.836 -8.818,3.836 -0.192,-10e-4 -0.192,-10e-4 -0.192,-10e-4 l 0,0 0,0 z m 20.703,-0.768 h -3.066 v -21.664 h -3.26 v -2.684 h 3.26 v -0.766 c 0,-2.494 0.574,-4.41 1.916,-5.752 1.344,-1.15 3.26,-1.727 5.943,-1.727 h 0.385 v 2.686 c -1.918,0 -3.26,0.383 -4.027,1.15 -0.766,0.766 -1.15,1.916 -1.15,3.643 v 0.766 h 5.178 v 2.684 h -5.178 v 21.664 l -10e-4,0 z m -20.703,-25.113 v 3.066 h -0.193 c -2.492,0 -4.6,0.959 -6.326,2.684 -1.916,1.918 -2.684,4.41 -2.684,7.094 0,2.875 0.768,5.367 2.684,7.094 1.727,1.916 3.834,2.875 6.52,2.875 v 3.068 c -3.451,0 -6.52,-1.344 -8.82,-3.836 -2.492,-2.492 -3.834,-5.559 -3.834,-9.01 0,-3.643 1.342,-6.709 3.834,-9.201 2.492,-2.686 5.369,-3.834 8.627,-3.834 0.192,0 0.192,0 0.192,0 l 0,0 0,0 z m -80.51998,25.881 v -3.068 l 0,0 c 2.684,0 4.793,-0.959 6.711,-2.875 1.725,-1.727 2.492,-4.219 2.492,-7.094 0,-2.875 -0.768,-5.176 -2.684,-7.094 -1.727,-1.725 -3.836,-2.684 -6.52,-2.684 v -3.066 c 3.451,0 6.326,1.342 8.818,3.641 2.492,2.492 3.836,5.561 3.836,9.012 0,3.643 -1.344,6.709 -3.643,9.393 -2.49,2.491 -5.558,3.835 -9.01,3.835 l 0,0 0,0 0,0 z m 16.295,-25.115 h 3.068 v 2.684 c 0.959,-0.957 2.109,-1.916 3.26,-2.492 1.342,-0.383 2.684,-0.766 4.408,-0.766 1.727,0 3.451,0.383 4.793,0.957 1.342,0.768 2.492,1.727 3.26,2.877 0.574,0.959 0.957,1.916 1.342,3.258 0.191,1.15 0.383,2.877 0.383,5.178 v 12.652 h -3.26 v -13.612 c 0,-2.875 -0.574,-4.984 -1.533,-6.326 -1.15,-1.342 -2.875,-1.918 -5.367,-1.918 -1.342,0 -2.684,0.191 -3.643,0.768 -1.15,0.574 -1.918,1.533 -2.684,2.492 -0.385,0.766 -0.576,1.533 -0.768,2.301 -0.191,0.957 -0.191,2.301 -0.191,4.408 v 11.887 h -3.068 v -24.348 l 0,0 0,0 z m 30.674,15.144 h 3.068 c 0,2.109 0.574,3.643 1.533,4.793 1.15,1.15 2.492,1.727 4.219,1.727 1.916,0 3.449,-0.576 4.6,-1.727 1.15098,-1.151 1.72698,-2.684 1.72698,-4.793 0,-2.875 -2.30098,-5.176 -6.90198,-6.709 -0.383,0 -0.574,-0.191 -0.768,-0.191 -2.492,-0.768 -4.025,-1.918 -5.176,-3.068 -0.959,-1.342 -1.533,-2.875 -1.533,-4.984 0,-2.492 0.768,-4.6 2.492,-6.326 1.533,-1.533 3.643,-2.492 6.135,-2.492 2.492,0 4.41,0.768 5.75198,2.301 1.533,1.533 2.301,3.643 2.492,6.326 h -3.068 c -0.191,-1.725 -0.76598,-3.066 -1.53298,-4.025 -0.959,-0.959 -2.109,-1.533 -3.643,-1.533 -1.534,0 -2.875,0.574 -3.834,1.533 -1.15,1.15 -1.533,2.492 -1.533,4.025 0,0.959 0,1.533 0.383,2.301 0.383,0.576 0.768,1.15 1.533,1.533 0.576,0.576 1.918,1.15 3.834,1.727 1.15,0.383 1.918,0.766 2.492,0.957 2.10898,0.768 3.64298,1.727 4.60198,3.068 0.959,1.341 1.342,2.875 1.342,4.984 0,3.26 -0.766,5.752 -2.492,7.668 -1.72498,1.918 -4.02498,2.877 -6.89998,2.877 -2.494,0 -4.793,-0.959 -6.328,-2.686 -1.725,-1.916 -2.492,-4.217 -2.492,-7.283 v -0.003 z m -46.969,-15.91 v 3.066 c -0.191,0 -0.191,0 -0.191,0 -2.492,0 -4.793,0.959 -6.518,2.684 -1.727,1.918 -2.684,4.41 -2.684,7.094 0,2.875 0.957,5.367 2.684,7.094 1.916,1.916 4.025,2.875 6.709,2.875 v 3.068 c -3.643,0 -6.518,-1.344 -9.01,-3.836 -2.492,-2.492 -3.643,-5.559 -3.643,-9.01 0,-3.643 1.15,-6.709 3.643,-9.201 2.492,-2.686 5.367,-3.834 8.818,-3.834 10e-4,0 10e-4,0 0.192,0 l 0,0 0,0 z m -49.269,25.881 v -2.877 l 0,0 c 2.492,0 4.602,-1.15 6.52,-3.066 1.725,-1.918 2.684,-4.41 2.684,-7.094 0,-2.684 -0.959,-4.984 -2.684,-6.902 -1.918,-1.916 -4.027,-2.875 -6.52,-2.875 l 0,0 v -2.875 c 0,0 0,0 0.191,0 1.918,0 3.643,0.383 5.178,1.15 1.533,0.766 2.875,1.916 3.834,3.258 v -3.834 h 3.066 v 24.348 h -3.066 v -3.834 c -0.959,1.533 -2.301,2.492 -3.834,3.451 -1.727,0.766 -3.451,1.148 -5.369,1.148 l 0,0 v 0.002 z m 19.363,-0.768 v -21.279 h -4.602 v -3.068 h 4.602 v -7.859 h 3.26 v 7.859 h 4.6 v 3.068 h -4.6 v 21.279 h -3.26 l 0,0 z m 13.612,-27.222 h -3.26 v -4.984 h 3.26 v 4.984 l 0,0 z m -3.26,27.222 v -24.348 h 3.26 v 24.348 h -3.26 z m -29.715,-24.921 v 2.875 c -2.684,0 -4.793,0.959 -6.709,2.875 -1.727,1.918 -2.684,4.41 -2.684,7.285 0,2.684 0.957,4.984 2.684,6.902 1.916,1.916 4.025,2.684 6.709,2.875 v 2.877 h -0.191 c -3.451,0 -6.518,-1.344 -8.818,-3.643 -2.492,-2.492 -3.643,-5.561 -3.643,-9.203 0,-3.642 1.15,-6.709 3.643,-9.201 2.3,-2.301 5.366,-3.642 9.009,-3.642 l 0,0 z m -39.109,25.689 v -3.068 l 0,0 c 2.686,0 4.793,-0.959 6.711,-2.875 1.725,-1.727 2.684,-4.219 2.684,-7.094 0,-2.875 -0.959,-5.176 -2.684,-7.094 -1.918,-1.725 -4.025,-2.684 -6.711,-2.684 v -3.066 c 3.451,0 6.328,1.342 8.82,3.641 2.492,2.492 3.834,5.561 3.834,9.012 0,3.643 -1.342,6.709 -3.643,9.393 -2.492,2.491 -5.56,3.835 -9.011,3.835 l 0,0 0,0 0,0 z m 19.363,-0.768 h -3.066 v -24.348 h 2.875 v 2.875 c 0.768,-1.148 1.725,-1.916 2.492,-2.492 0.959,-0.574 2.109,-0.766 3.26,-0.766 v 3.451 c -1.918,0.191 -3.26,0.766 -4.219,1.725 -0.766,0.959 -1.342,2.684 -1.342,4.793 v 14.762 l 0,0 z m -19.362,-25.113 v 3.066 h -0.193 c -2.492,0 -4.6,0.959 -6.518,2.684 -1.725,1.918 -2.684,4.41 -2.684,7.094 0,2.875 0.959,5.367 2.684,7.094 1.918,1.916 4.025,2.875 6.711,2.875 v 3.068 c -3.451,0 -6.52,-1.344 -9.012,-3.836 -2.301,-2.492 -3.643,-5.559 -3.643,-9.01 0,-3.643 1.342,-6.709 3.643,-9.201 2.492,-2.686 5.369,-3.834 8.818,-3.834 h 0.194 l 0,0 0,0 z m -27.607,25.881 v -2.877 c 2.492,-0.191 4.602,-1.15 6.518,-3.066 1.727,-1.918 2.686,-4.219 2.686,-7.094 0,-2.684 -0.959,-4.984 -2.686,-6.902 -1.916,-1.916 -4.025,-2.875 -6.518,-2.875 v -2.875 h 0.191 c 3.451,0 6.326,1.15 8.818,3.643 2.301,2.492 3.451,5.559 3.451,9.201 0,3.642 -1.15,6.711 -3.643,9.01 -2.299,2.491 -5.366,3.835 -8.817,3.835 z m 0,-25.689 v 2.875 c 0,0 0,0 -0.191,0 -2.492,0 -4.602,0.959 -6.518,3.068 -1.727,1.916 -2.686,4.217 -2.686,7.092 0,2.684 0.959,4.793 2.877,6.711 1.725,2.107 3.834,3.066 6.326,3.066 0,0 0,0 0.191,0 v 2.877 c -0.191,0 -0.191,0 -0.191,0 -1.918,0 -3.451,-0.385 -4.984,-1.15 -1.533,-0.768 -2.875,-1.727 -4.219,-3.26 v 3.643 h -3.066 v -32.207 h 3.066 v 10.16 1.725 c 1.344,-1.533 2.877,-2.684 4.41,-3.449 1.534,-0.769 3.069,-1.151 4.985,-1.151 l 0,0 0,0 z m -29.715,25.689 v -2.877 l 0,0 c 2.492,0 4.793,-1.15 6.518,-3.066 1.918,-1.918 2.877,-4.41 2.877,-7.094 0,-2.684 -0.959,-4.984 -2.877,-6.902 -1.725,-1.916 -4.025,-2.875 -6.326,-2.875 h -0.192 v -2.875 h 0.191 c 1.918,0 3.643,0.383 5.176,1.15 1.535,0.766 2.877,1.916 4.027,3.258 v -3.834 h 3.066 v 24.348 h -3.066 v -3.834 c -0.959,1.533 -2.301,2.492 -4.027,3.451 -1.725,0.766 -3.449,1.148 -5.367,1.148 v 0.002 z m 0,-25.689 v 2.875 c -2.492,0 -4.793,0.959 -6.518,2.875 -1.918,1.918 -2.877,4.41 -2.877,7.285 0,2.684 0.959,4.984 2.877,6.902 1.725,1.916 4.025,2.684 6.518,2.875 v 2.877 l 0,0 c -3.643,0 -6.518,-1.344 -9.01,-3.643 -2.301,-2.492 -3.643,-5.561 -3.643,-9.203 0,-3.642 1.342,-6.709 3.643,-9.201 2.493,-2.301 5.368,-3.642 9.01,-3.642 l 0,0 z m -44.094,25.689 v -3.068 l 0,0 c 2.684,0 4.793,-0.959 6.518,-2.875 1.918,-1.727 2.686,-4.219 2.686,-7.094 0,-2.875 -0.768,-5.176 -2.686,-7.094 -1.725,-1.725 -3.834,-2.684 -6.518,-2.684 v -3.066 c 3.451,0 6.326,1.342 8.818,3.641 2.492,2.492 3.834,5.561 3.834,9.012 0,3.643 -1.342,6.709 -3.834,9.393 -2.3,2.491 -5.366,3.835 -8.818,3.835 l 0,0 0,0 0,0 z m 16.295,-0.768 v -32.207 h 3.068 v 32.207 h -3.068 l 0,0 z m 8.245,0 v -32.207 h 3.068 v 32.207 h -3.068 z m -24.54,-25.113 v 3.066 c -0.191,0 -0.191,0 -0.191,0 -2.492,0 -4.792,0.959 -6.517,2.684 -1.727,1.918 -2.684,4.41 -2.684,7.094 0,2.875 0.957,5.367 2.684,7.094 1.725,1.916 4.025,2.875 6.708,2.875 v 3.068 c -3.643,0 -6.517,-1.344 -9.009,-3.836 -2.492,-2.492 -3.642,-5.559 -3.642,-9.01 0,-3.643 1.15,-6.709 3.642,-9.201 2.492,-2.686 5.367,-3.834 8.818,-3.834 0,0 0,0 0.191,0 l 0,0 0,0 z m -73.231,25.881 v -3.26 c 1.342,-0.191 2.492,-0.576 3.451,-1.342 1.15,-0.959 2.299,-2.301 3.449,-4.41 l -6.9,-6.326 v -5.176 c 1.533,-0.768 2.492,-1.342 3.258,-2.301 0.768,-0.959 1.15,-2.109 1.15,-3.451 0,-1.15 -0.383,-2.301 -1.15,-3.066 -0.957,-0.959 -1.916,-1.342 -3.066,-1.342 0,0 0,0 -0.191,0 v -3.068 c 0.191,0 0.191,0 0.383,0 1.918,0 3.643,0.768 5.176,2.301 1.535,1.533 2.301,3.26 2.301,5.367 0,1.727 -0.574,3.068 -1.725,4.602 -0.959,1.342 -2.492,2.301 -4.602,3.26 l 6.711,6.135 3.641,-10.162 h 3.643 l -4.984,12.27 7.285,6.711 -2.107,2.301 -6.52,-5.943 c -0.957,2.301 -2.301,3.834 -4.025,5.176 -1.533,0.959 -3.26,1.533 -5.176,1.725 l 0,0 v -10e-4 z m 53.869,-24.732 c -1.342,-1.916 -3.066,-3.449 -4.791,-4.408 -1.727,-0.959 -3.836,-1.342 -6.135,-1.342 -3.643,0 -6.711,1.342 -9.203,3.834 -2.684,2.684 -3.834,5.943 -3.834,9.586 0,4.025 1.15,7.285 3.834,9.969 2.492,2.684 5.561,4.025 9.203,4.025 2.299,0 4.217,-0.574 6.135,-1.533 1.725,-0.768 3.258,-2.301 4.6,-4.025 h 3.834 c -1.533,2.684 -3.449,4.791 -5.941,6.326 -2.492,1.533 -5.369,2.301 -8.436,2.301 -4.793,0 -8.627,-1.727 -11.887,-4.986 -3.26,-3.258 -4.793,-7.283 -4.793,-12.076 0,-2.301 0.385,-4.41 1.342,-6.52 0.768,-1.916 2.109,-3.834 3.834,-5.367 1.535,-1.533 3.26,-2.875 5.178,-3.643 1.916,-0.768 4.025,-1.15 6.135,-1.15 3.258,0 6.135,0.768 8.818,2.301 2.492,1.725 4.602,3.834 5.943,6.709 h -3.836 l 0,-10e-4 z m -53.869,-9.01 v 3.068 c -1.15,0 -2.301,0.383 -3.068,1.342 -0.766,0.766 -1.15,1.916 -1.15,3.258 0,0.959 0.191,1.918 0.768,2.877 0.574,0.766 1.533,1.725 2.875,2.875 0.191,0 0.385,-0.191 0.576,-0.191 v 5.176 l -1.727,-1.533 c -1.533,0.768 -2.875,1.725 -3.643,2.875 -0.766,1.342 -1.342,2.684 -1.342,4.219 0,1.916 0.576,3.449 1.727,4.793 1.342,1.148 2.684,1.725 4.6,1.725 0.193,0 0.385,0 0.385,0 v 3.26 c -0.191,0 -0.385,0 -0.576,0 -2.684,0 -4.793,-0.959 -6.709,-2.877 -1.727,-1.916 -2.684,-4.217 -2.684,-6.9 0,-1.918 0.574,-3.834 1.533,-5.369 1.15,-1.725 2.684,-3.066 4.602,-3.834 -1.535,-1.342 -2.492,-2.492 -2.877,-3.451 -0.574,-1.15 -0.957,-2.299 -0.957,-3.643 0,-2.107 0.766,-3.834 2.299,-5.367 1.534,-1.344 3.258,-2.112 5.368,-2.303 l 0,0 0,0 z m -33.934,42.56 v -3.068 l 0,0 c 2.684,0 4.984,-0.766 6.711,-2.684 1.725,-1.918 2.492,-4.41 2.492,-7.477 v -0.576 c -1.15,1.535 -2.492,2.877 -4.027,3.643 -1.533,0.768 -3.258,1.15 -4.984,1.15 -0.191,0 -0.191,0 -0.191,0 v -2.875 l 0,0 c 2.301,0 4.602,-0.959 6.326,-2.875 1.918,-1.918 2.877,-4.219 2.877,-6.902 0,-2.683 -0.959,-5.176 -2.877,-7.094 -1.725,-1.916 -3.834,-2.875 -6.326,-2.875 l 0,0 v -2.875 c 1.918,0 3.643,0.383 5.176,1.15 1.535,0.574 2.877,1.916 4.027,3.449 v -4.025 h 3.066 v 20.322 c 0,4.408 -1.15,7.668 -3.258,9.969 -2.109,2.492 -4.986,3.643 -8.82,3.643 h -0.192 l 0,0 z m 0,-34.507 v 2.875 c -2.684,0 -4.602,0.959 -6.326,2.684 -1.916,1.918 -2.875,4.219 -2.875,7.094 0,2.684 0.959,5.176 2.875,7.094 1.727,1.916 3.643,2.875 6.326,2.875 v 2.875 c -3.451,0 -6.518,-1.15 -8.818,-3.643 -2.492,-2.492 -3.643,-5.559 -3.643,-9.201 0,-3.642 1.15,-6.518 3.643,-9.01 2.301,-2.492 5.367,-3.643 8.627,-3.643 0,0 0,0 0.191,0 l 0,0 z m 0,31.439 v 3.068 c -2.684,0 -4.793,-0.768 -6.709,-1.918 -2.109,-1.533 -3.26,-3.26 -3.834,-5.559 h 3.643 c 0.383,1.342 1.342,2.492 2.492,3.258 1.342,0.768 2.492,1.151 4.408,1.151 l 0,0 0,0 z m -98.923,-5.75 v -2.877 l 0,0 c 2.492,0 4.602,-1.15 6.519,-3.066 1.917,-1.918 2.684,-4.41 2.684,-7.094 0,-2.684 -0.767,-4.984 -2.684,-6.902 -1.917,-1.916 -4.026,-2.875 -6.326,-2.875 -0.192,0 -0.192,0 -0.192,0 v -2.875 h 0.192 c 1.917,0 3.643,0.383 5.176,1.15 1.534,0.766 2.876,1.916 3.834,3.258 v -3.834 h 3.067 v 24.348 h -3.067 v -3.834 c -0.958,1.533 -2.3,2.492 -3.834,3.451 -1.726,0.766 -3.45,1.148 -5.368,1.148 l 0,0 v 0.002 z m 20.514,-0.768 h -3.26 v -24.348 h 3.067 v 2.875 c 0.768,-1.148 1.534,-1.916 2.492,-2.492 0.768,-0.574 1.918,-0.766 3.067,-0.766 v 3.451 c -1.917,0.191 -3.259,0.766 -4.217,1.725 -0.768,0.959 -1.15,2.684 -1.15,4.793 v 14.762 l 0.001,0 0,0 z m 8.243,-24.347 h 3.067 v 2.684 c 0.959,-0.957 1.917,-1.916 3.259,-2.492 1.343,-0.383 2.685,-0.766 4.41,-0.766 1.725,0 3.259,0.383 4.792,0.957 1.343,0.768 2.492,1.727 3.26,2.877 0.575,0.959 0.958,1.916 1.149,3.258 0.384,1.15 0.384,2.877 0.384,5.178 v 12.652 h -3.067 v -13.612 c 0,-2.875 -0.575,-4.984 -1.533,-6.326 -1.15,-1.342 -2.876,-1.918 -5.368,-1.918 -1.534,0 -2.684,0.191 -3.834,0.768 -0.959,0.574 -1.917,1.533 -2.492,2.492 -0.384,0.766 -0.575,1.533 -0.768,2.301 -0.191,0.957 -0.191,2.301 -0.191,4.408 v 11.887 h -3.067 v -24.348 l -10e-4,0 0,0 z m 28.564,-2.875 h -3.066 v -4.984 h 3.066 v 4.984 l 0,0 z m -3.066,27.222 v -24.348 h 3.066 v 24.348 h -3.066 l 0,0 z m 8.053,-24.347 h 3.066 v 2.684 c 0.959,-0.957 2.109,-1.916 3.451,-2.492 1.15,-0.383 2.684,-0.766 4.217,-0.766 1.918,0 3.451,0.383 4.793,0.957 1.533,0.768 2.492,1.727 3.451,2.877 0.574,0.959 0.959,1.916 1.15,3.258 0.191,1.15 0.383,2.877 0.383,5.178 v 12.652 h -3.066 v -13.612 c 0,-2.875 -0.576,-4.984 -1.727,-6.326 -1.151,-1.342 -2.875,-1.918 -5.367,-1.918 -1.342,0 -2.492,0.191 -3.643,0.768 -1.15,0.574 -1.918,1.533 -2.492,2.492 -0.383,0.766 -0.768,1.533 -0.959,2.301 0,0.957 -0.191,2.301 -0.191,4.408 v 11.887 h -3.066 v -24.348 l 0,0 z m -62.308,-0.574 v 2.875 c -2.684,0 -4.792,0.959 -6.518,2.875 -1.917,1.918 -2.876,4.41 -2.876,7.285 0,2.684 0.959,4.984 2.876,6.902 1.726,1.916 3.834,2.684 6.518,2.875 v 2.877 l 0,0 c -3.642,0 -6.709,-1.344 -9.01,-3.643 -2.492,-2.492 -3.643,-5.561 -3.643,-9.203 0,-3.642 1.342,-6.709 3.643,-9.201 2.493,-2.301 5.369,-3.642 9.01,-3.642 l 0,0 z m -27.605,25.689 v -3.068 l 0,0 c 1.725,0 3.45,-0.383 4.984,-1.342 1.342,-0.959 2.492,-2.301 3.259,-4.025 h 3.643 c -1.15,2.684 -2.684,4.793 -4.793,6.326 -2.108,1.342 -4.409,2.107 -7.093,2.107 l 0,0 0,0 v 0.002 z m 0,-11.887 v -2.684 h 9.202 c -0.575,-2.686 -1.726,-4.793 -3.26,-6.135 -1.533,-1.342 -3.643,-2.109 -5.942,-2.109 v -3.068 c 0,0 0,0 0.191,0 3.643,0 6.71,1.344 9.011,3.836 2.3,2.492 3.45,5.941 3.45,9.969 v 0.191 h -12.652 l 0,0 z m -61.732,-6.711 h 13.612 v 3.26 h -13.612 v 11.502 h 13.612 v 3.068 h -16.871 v -32.207 h 16.871 v 3.066 h -13.612 v 11.311 l 0,0 z m 61.732,-7.283 v 3.066 c -0.192,0 -0.192,0 -0.384,0 -2.301,0 -4.218,0.768 -5.943,2.109 -1.725,1.533 -2.684,3.643 -3.067,6.135 h 9.395 v 2.684 h -9.395 c 0.192,2.684 1.15,4.793 2.876,6.326 1.726,1.725 3.834,2.492 6.519,2.492 v 3.068 c -3.643,0 -6.519,-1.344 -9.011,-3.836 -2.492,-2.492 -3.643,-5.559 -3.643,-9.01 0,-3.834 1.15,-6.9 3.643,-9.395 2.3,-2.297 5.367,-3.447 9.01,-3.639 l 0,0 0,0 z m -33.359,11.502 v 2.875 h -10.544 v -2.875 h 10.544 l 0,0 z m 19.747,13.611 h -14.57 v -32.207 h 3.067 v 29.139 h 11.503 v 3.068 z" />
  </g>
</svg>
